<svg xmlns="http://www.w3.org/2000/svg" viewBox="5 0 136 96">
    <style>
      path:not(:target) {display:none;}
      #UX {fill: #ee7800;}
      #BX {fill: #71bce9;}
    </style>
    <path id="UX" d="M120.194,236.971h-19.42l22.679,39.309,9.711-16.83Zm21.123,70.271,13.672,23.7H174.41l-23.382-40.526Zm12.97-70.271-54.216,93.967h19.421l54.216-93.967H154.287Zm-97.4,77.053-4.942-7.063v-69.99h-16.9v75.174h0v0.15l13.045,18.643h6.626l9.759-16.914H56.887Zm24.557-77.053v69.99L76.5,314.024H72.626l-9.759,16.914H85.3L98.346,312.3v-0.15h0V236.971h-16.9Z" transform="translate(-31 -236)"/>
    <path id="BX" d="M356.865,236.876H337.132l23.045,39.294,9.866-16.824Zm21.463,70.244,13.891,23.687h19.734L388.194,290.3Zm13.178-70.244-55.088,93.931h19.733l55.088-93.931H391.506Zm-52.418,16.3-16.48-16.224H276.187v93.932h15.2l9.916-16.907h-7.939V292.37h20.146l11.966,11.779-9.981,9.826h-5.907l-9.916,16.907h22.938l16.48-16.224V293.641l-9.341-9.2,9.341-9.195V253.174Zm-24.5,22.288H293.362v-21.6h22.131l10.518,10.354Z" transform="translate(-271 -236)"/>
</svg>
